<svg width="600" height="600" xmlns="http://www.w3.org/2000/svg" version="1.1">
 <g>
  <title>Layer 1</title>
  <circle fill="#000000" r="300" cy="300" cx="300"/>
  <path fill="#ffffff" d="m172.58992,142.53895c50.55998,36.13771 104.94298,109.40993 124.90968,148.73207c19.96821,-39.31924 74.34817,-112.59508 124.90968,-148.73207c36.48141,-26.07553 95.59073,-46.25129 95.59073,17.94905c0,12.82168 -7.72132,107.70877 -12.24994,123.11332c-15.74145,53.55686 -73.10273,67.21682 -124.12652,58.94918c89.18861,14.4519 111.87734,62.32182 62.87835,110.19174c-93.05877,90.91434 -133.7525,-22.81075 -144.18445,-51.95126c-1.91151,-5.34215 -2.80598,-7.84126 -2.81914,-5.71619c-0.01323,-2.12515 -0.90763,0.37403 -2.81914,5.71619c-10.42739,29.14051 -51.12036,142.8685 -144.18445,51.95126c-48.99975,-47.86992 -26.31178,-95.74274 62.87835,-110.19174c-51.02531,8.26764 -108.38735,-5.39239 -124.12652,-58.94918c-4.52877,-15.406 -12.24994,-110.29309 -12.24994,-123.11332c0,-64.20034 59.11083,-44.02458 95.59073,-17.94905l0.00259,0z"/>
 </g>
</svg>
