<svg width="512" height="512" xmlns="http://www.w3.org/2000/svg" version="1.1">
 <g>
  <circle stroke="none" fill="#ffffff" r="168" cy="258.5" cx="260.5"/>
  <path stroke="none" d="m255.99999,1.00001c-141.39999,0 -255.99999,114.15234 -255.99999,255s114.6,255 255.99999,255s255.99999,-114.15234 255.99999,-255s-114.6,-255 -255.99999,-255zm56.5,211.76954l-2.9,38.15039l-39.3,0l0,132.48048l-49.6,0l0,-132.48048l-26.5,0l0,-38.15039l26.5,0l0,-25.59961c0,-11.25586 0.3,-28.6875 8.5,-39.54492c8.7,-11.45508 20.6,-19.22461 41.1,-19.22461c33.4,0 47.4,4.78125 47.4,4.78125l-6.6,39.04688c0,0 -11,-3.1875 -21.3,-3.1875c-10.3,0 -19.5,3.68555 -19.5,13.94532l0,29.78321l42.2,0l0,-0.00002z"/>
  <circle stroke-width="4" fill="none" r="252" cy="255" cx="256" stroke="#ffffff"/>
 </g>
</svg>
