<svg width="600" height="600" xmlns="http://www.w3.org/2000/svg" version="1.1">
 <g>
  <circle cx="300" cy="300" r="300" fill="#000000"/>
  <path d="m186.96853,157.84646c44.94225,32.22756 93.28274,97.57161 111.03093,132.63904c17.74954,-35.06484 66.08732,-100.41212 111.03093,-132.63904c32.42795,-23.25412 84.96962,-41.24683 84.96962,16.00694c0,11.43435 -6.8634,96.05452 -10.88885,109.79227c-13.99241,47.76193 -64.98027,59.94386 -110.33479,52.57079c79.27884,12.88818 99.44662,55.57851 55.89192,98.26883c-82.71898,81.07727 -118.89122,-20.34259 -128.16408,-46.33006c-1.69912,-4.76412 -2.49421,-6.99282 -2.5059,-5.09769c-0.01176,-1.89521 -0.80678,0.33356 -2.5059,5.09769c-9.2688,25.98746 -45.44036,127.40991 -128.16408,46.33006c-43.55537,-42.69032 -23.38827,-85.38323 55.89192,-98.26883c-45.35587,7.37307 -96.3444,-4.80893 -110.33479,-52.57079c-4.02558,-13.73905 -10.88885,-98.35921 -10.88885,-109.79227c0,-57.25377 52.54301,-39.26105 84.96962,-16.00694l0.0023,0l-0.00001,0z" fill="#ffffff" id="svg_2"/>
  <circle cx="300" cy="300" r="300" fill="none" stroke="#ffffff" stroke-width="4"/> 
 </g>
</svg>
