<svg width="512" height="512" xmlns="http://www.w3.org/2000/svg" xml:space="preserve" version="1.1">
 <g>
   <circle fill="#ffffff" r="250" cy="260" cx="255"/>
   <path d="m255,304c24.8,0 45.1,-20.2 45.1,-45.1c0,-9.8 -3.2,-18.9 -8.5,-26.3c-8.2,-11.3 -21.5,-18.8 -36.5,-18.8s-28.3,7.4 -36.5,18.8c-5.3,7.4 -8.5,16.5 -8.5,26.3c-0.1,24.9 20.1,45.1 44.9,45.1z"/>
   <polygon points="353.3999938964844,203.89999389648438 353.3999938964844,166.10000610351562 353.3999938964844,160.5 347.8000030517578,160.5 310,160.60000610351562 310.1999969482422,204 "/>
   <path d="m325,259c0,38.6 -31.4,70 -70,70c-38.6,0 -70,-31.4 -70,-70c0,-9.3 1.9,-18.2 5.2,-26.3l-38.2,0l0,104.8c0,13.5 11,24.5 24.5,24.5l157,0c13.5,0 24.5,-11 24.5,-24.5l0,-104.8l-38.2,0c3.4,8.1 5.2,17 5.2,26.3z"/>
   <path d="m255,3c-141.4,0 -256,114.6 -256,256s114.6,256 256,256s256,-114.6 256,-256s-114.6,-256 -256,-256zm128,229.7l0,104.8c0,27.3 -22.2,49.5 -49.5,49.5l-157,0c-27.3,0 -49.5,-22.2 -49.5,-49.5l0,-104.8l0,-52.3c0,-27.3 22.2,-49.5 49.5,-49.5l157,0c27.3,0 49.5,22.2 49.5,49.5l0,52.3z"/>
   <circle stroke="#ffffff" cx="256" cy="255" r="252" fill="none" stroke-width="4"/>
 </g>
</svg>
