<svg width="512" height="512" xmlns="http://www.w3.org/2000/svg" version="1.1">
 <g>
   <circle cx="255.50001" cy="255.50001" r="255.50001" fill="#000000" stroke="null"/>
   <path d="m159.23487,134.43257c38.27582,27.44714 79.4458,83.09849 94.56134,112.96425c15.11669,-29.86356 56.28437,-85.51766 94.56134,-112.96425c27.6178,-19.80476 72.36579,-35.12855 72.36579,13.63258c0,9.73826 -5.84533,81.80644 -9.27367,93.50642c-11.91687,40.67724 -55.34153,51.05219 -93.96847,44.77279c67.51915,10.97643 84.69537,47.33437 47.60129,83.69229c-70.449,69.05081 -101.25569,-17.32511 -109.15308,-39.45777c-1.44708,-4.05744 -2.12424,-5.95555 -2.13419,-4.34153c-0.01002,-1.61409 -0.68711,0.28408 -2.13419,4.34153c-7.89393,22.13265 -38.70004,108.51078 -109.15308,39.45777c-37.09466,-36.35792 -19.91901,-72.71805 47.60129,-83.69229c-38.62808,6.2794 -82.05332,-4.09561 -93.96847,-44.77279c-3.42845,-11.70109 -9.27367,-83.76926 -9.27367,-93.50642c0,-48.76113 44.74913,-33.43733 72.36579,-13.63258l0.00196,0l-0.00001,0l0.00001,0l0.00002,0z" fill="#ffffff" stroke="null"/>
   <circle cx="256" cy="255" r="252" fill="none" stroke-width="4" stroke="#fffff"/>
 </g>
</svg>
