<svg width="512" height="512" xmlns="http://www.w3.org/2000/svg" version="1.1">
 <g>
   <circle fill="#ffffff" r="250" cy="257" cx="256"/>
   <polygon points="221.89999389648438,305.29998779296875 305.70001220703125,256.1000061035156 221.89999389648438,206.89999389648438 "/>
   <path d="m256,0c-141.4,0 -256,114.6 -256,256s114.6,256 256,256s256,-114.6 256,-256s-114.6,-256 -256,-256zm128,301.8l0,0c0,44.1 -44.1,44.1 -44.1,44.1l-167.8,0c-44.1,0 -44.1,-44.1 -44.1,-44.1l0,-91.5c0,-44.1 44.1,-44.1 44.1,-44.1l167.8,0c44.1,0 44.1,44.1 44.1,44.1l0,91.5z"/>
   <circle stroke-width="4" fill="none" r="252" cy="255" cx="256" stroke="#ffffff"/>
 </g>
</svg>
