<svg width="20" height="20" xmlns="http://www.w3.org/2000/svg" class="cf-icon-svg" fill="#000000">
 <g>
  <circle fill="#ffffff" r="8.15625" cy="10.28125" cx="10.15625"/>
  <path d="m19.917,10.0165a9.917,9.8545 0 1 1 -9.917,-9.8545a9.917,9.8545 0 0 1 9.917,9.8545zm-14.76464,-1.73888l3.06892,-3.04834l-1.21003,-1.20241a0.99458,0.98831 0 0 0 -1.40294,0l-1.66473,1.65549a0.99458,0.98831 0 0 0 0,1.39409l1.20878,1.20116l0,0.00001zm10.30907,7.41981c0.16284,0 0.25804,-0.12447 0.2167,-0.30745l-0.71775,-3.16409a1.61463,1.60445 0 0 0 -0.36577,-0.66219l-5.67437,-5.63861l-0.79416,0.79165l5.67312,5.63737l0.31566,-0.31367a0.99333,0.98707 0 0 1 0.18414,0.33359l0.31691,1.39907l-0.86431,0.85886l-1.4092,-0.31367a1.00084,0.99454 0 0 1 -0.3357,-0.18422l1.09103,-1.08291l-5.67437,-5.63861l-1.56953,1.56213l5.67437,5.63612a1.62089,1.61068 0 0 0 0.66765,0.3647l3.18416,0.71323a0.37579,0.37342 0 0 0 0.08267,0.00996l-0.00125,-0.00124l0,-0.00002z"/>
  <circle stroke="#ffffff" stroke-width="4" fill="none" r="10" cy="10" cx="10"/>
 </g>
</svg>
