<svg width="512" height="512" xmlns="http://www.w3.org/2000/svg" stroke-width="0.00019" stroke="#000000" class="cf-icon-svg" fill="#000000">
 <g>
  <circle stroke="none" fill="#ffffff" r="220" cy="251" cx="247"/>
  <path stroke="none" d="m510.417,255.702a254.91699,255.417 0 1 1 -254.91699,-255.417a254.91699,255.417 0 0 1 254.91699,255.417zm-379.5259,-45.06979l78.88678,-79.00925l-31.10393,-31.16494a25.56576,25.61591 0 0 0 -36.06253,0l-42.79205,42.90825a25.56576,25.61591 0 0 0 0,36.13327l31.07173,31.13268l0,-0.00001zm264.99518,192.31284c4.18583,0 6.63293,-3.22619 5.57037,-7.96868l-18.44985,-82.0096a41.5041,41.58551 0 0 0 -9.40202,-17.1633l-145.86004,-146.14614l-20.41397,20.51853l145.82784,146.11388l8.11407,-8.12999a25.53356,25.58364 0 0 1 4.73321,8.64618l8.14627,36.26231l-22.21709,22.26067l-36.22352,-8.12999a25.72675,25.77721 0 0 1 -8.62925,-4.77476l28.04505,-28.06781l-145.86004,-146.14614l-40.34495,40.48861l145.86004,146.08161a41.6651,41.74682 0 0 0 17.1619,9.45271l81.84906,18.48604a9.65961,9.67856 0 0 0 2.12511,0.2581l-0.0322,-0.03226l0.00001,0.00003z" id="svg_2"/>
  <circle stroke="#ffffff" cx="256" cy="255" r="252" fill="none" stroke-width="4" id="svg_3"/>
 </g>
</svg>
